<?xml version="1.0" standalone="no"?>
<!DOCTYPE svg PUBLIC "-//W3C//DTD SVG 1.1//EN" "http://www.w3.org/Graphics/SVG/1.1/DTD/svg11.dtd" >
<!--
2013-9-30: Created.
-->
<svg>
<metadata>
Created by iconfont
</metadata>
<defs>

<font id="iconfont" horiz-adv-x="1024" >
  <font-face
    font-family="iconfont"
    font-weight="500"
    font-stretch="normal"
    units-per-em="1024"
    ascent="896"
    descent="-128"
  />
    <missing-glyph />
    
    <glyph glyph-name="star-fill" unicode="&#59559;" d="M510.7 283.4l-129.6-99.7 51.1 157.1-129.6 93.5h159.5L512 587.6l49.9-153.3h158.3l-128.4-93.5 49.8-157.1zM512 586l49.3-151.5 0.2-0.7h157.1l-126.9-92.4-0.6-0.4 0.2-0.7L640.7 185l-129.4 98.6-0.6 0.5-0.6-0.5-128-98.5 50.5 155.2 0.2 0.7-0.6 0.4-128.1 92.4H462.4l0.2 0.7L512 586m0 3.2l-50.2-154.4H301l130.6-94.2-51.5-158.3 130.6 100.5 131.9-100.5-50.2 158.3 129.4 94.2H562.2L512 589.2zM512-127.5c-69.1 0-136 13.5-199.1 40.2-60.9 25.8-115.6 62.6-162.6 109.6-47 47-83.9 101.7-109.6 162.6C14 248 0.5 314.9 0.5 384S14 520 40.7 583.1c25.8 60.9 62.6 115.6 109.6 162.6 47 47 101.7 83.9 162.6 109.6C376 882 442.9 895.5 512 895.5S648 882 711.1 855.3c60.9-25.8 115.6-62.6 162.6-109.6 47-47 83.9-101.7 109.6-162.6 26.7-63.1 40.2-130 40.2-199.1s-13.5-136-40.2-199.1c-25.8-60.9-62.6-115.6-109.6-162.6-47-47-101.7-83.9-162.6-109.6-63.1-26.7-130-40.2-199.1-40.2zM277.4 44.1l233.3 171.5 235.7-171.5-88.2 276.2L889 486.7H602.7l-88.2 277.4-92-277.4H135l233.3-166.4-90.9-276.2zM512 895c69 0 135.9-13.5 198.9-40.2 60.8-25.7 115.5-62.6 162.4-109.5 46.9-46.9 83.8-101.6 109.5-162.4 26.6-63 40.2-129.9 40.2-198.9s-13.5-135.9-40.2-198.9c-25.7-60.8-62.6-115.5-109.5-162.4-46.9-46.9-101.6-83.8-162.4-109.5-63-26.6-129.9-40.2-198.9-40.2s-135.9 13.5-198.9 40.2c-60.8 25.7-115.5 62.6-162.4 109.5-46.9 46.9-83.8 101.6-109.5 162.4C14.5 248.1 1 315 1 384s13.5 135.9 40.2 198.9c25.7 60.8 62.6 115.5 109.5 162.4 46.9 46.9 101.6 83.8 162.4 109.5C376.1 881.5 443 895 512 895m-89.8-407.8H133.4l2.5-1.8 231.7-165.3-90.2-274.4-1-3 2.5 1.9L510.8 215 745 44.7l2.5-1.8-0.9 2.9-87.7 274.4L888 485.4l2.5 1.8H603.1l-87.7 275.6-0.9 2.9-1-2.9-91.3-275.6M512 896C229.2 896 0 666.8 0 384s229.2-512 512-512 512 229.2 512 512S794.8 896 512 896zM278.4 45.5l90.4 275.1-232.3 165.6h286.3l91.6 276.3 87.9-276.3h285.1L657.7 320.5l87.9-275.1-234.8 170.8-232.4-170.7z"  horiz-adv-x="1024" />

    
    <glyph glyph-name="email" unicode="&#59560;" d="M1023.9 756.3c-1.2 15.5-14.1 27.7-29.9 27.7H30c-16.6 0-30-13.4-30-30v-740c0-16.6 13.4-30 30-30h964c16.6 0 30 13.4 30 30V754c0 0.8 0 1.6-0.1 2.3zM90 724h844c7.8 0 14.9-3 20.3-7.9L509.4 459.3 67.9 714.2c5.5 6 13.3 9.8 22.1 9.8z m874-650c0-16.6-13.4-30-30-30H90c-16.6 0-30 13.4-30 30V649.5l389.4-224.8 60-34.6 60 34.6L964 652.5V74z"  horiz-adv-x="1024" />

    
    <glyph glyph-name="up" unicode="&#59561;" d="M512 550.2l396-396c11.7-11.7 30.7-11.7 42.4 0s11.7 30.7 0 42.4L533.2 613.8c-5.9 5.9-13.5 8.8-21.2 8.8-7.7 0-15.4-2.9-21.2-8.8L73.6 196.6c-11.7-11.7-11.7-30.7 0-42.4s30.7-11.7 42.4 0l396 396z"  horiz-adv-x="1024" />

    
    <glyph glyph-name="close" unicode="&#59562;" d="M874 64.4L554.4 384 874 703.6c11.7 11.7 11.7 30.7 0 42.4s-30.7 11.7-42.4 0L512 426.4 192.4 746c-11.7 11.7-30.7 11.7-42.4 0s-11.7-30.7 0-42.4L469.6 384 150 64.4c-11.7-11.7-11.7-30.7 0-42.4s30.7-11.7 42.4 0L512 341.6 831.6 22c11.7-11.7 30.7-11.7 42.4 0 11.8 11.7 11.8 30.7 0 42.4z"  horiz-adv-x="1024" />

    
    <glyph glyph-name="user" unicode="&#59563;" d="M512 386.5c-68 0-131.9 26.5-180 74.5-48.1 48.1-74.5 112-74.5 180S284 772.9 332 821C380.1 869 444 895.5 512 895.5S643.9 869 692 821c48.1-48.1 74.5-112 74.5-180S740 509.1 692 461c-48.1-48-112-74.5-180-74.5z m0 450c-107.8 0-195.5-87.7-195.5-195.5S404.2 445.5 512 445.5 707.5 533.2 707.5 641 619.8 836.5 512 836.5zM512 895c34.3 0 67.6-6.7 98.9-20 30.2-12.8 57.4-31.1 80.7-54.4 23.3-23.3 41.6-50.5 54.4-80.7 13.2-31.3 20-64.6 20-98.9 0-34.3-6.7-67.6-20-98.9-12.8-30.2-31.1-57.4-54.4-80.7-23.3-23.3-50.5-41.6-80.7-54.4-31.3-13.2-64.6-20-98.9-20s-67.6 6.7-98.9 20c-30.2 12.8-57.4 31.1-80.7 54.4-23.3 23.3-41.6 50.5-54.4 80.7-13.2 31.3-20 64.6-20 98.9 0 34.3 6.7 67.6 20 98.9 12.8 30.2 31.1 57.4 54.4 80.7 23.3 23.3 50.5 41.6 80.7 54.4C444.4 888.3 477.7 895 512 895m0-450c108.1 0 196 87.9 196 196S620.1 837 512 837s-196-87.9-196-196 87.9-196 196-196m0 451C371.2 896 257 781.8 257 641s114.2-255 255-255 255 114.2 255 255S652.8 896 512 896z m0-450c-107.7 0-195 87.3-195 195S404.3 836 512 836s195-87.3 195-195-87.3-195-195-195zM993-127.5c-15.5 0-28.5 12.1-29.4 27.7-0.7 10.6-1.7 21.4-3.2 31.9C930.3 155.2 737.5 323.5 512 323.5S93.7 155.2 63.6-67.9c-1.4-10.5-2.5-21.3-3.2-31.9-1-15.5-13.9-27.7-29.4-27.7-8.2 0-15.9 3.3-21.5 9.3-5.7 6-8.5 13.9-7.9 22.1 0.6 9.3 1.5 18.7 2.6 28 14.6 123.4 74 237.2 167 320.4C265 336.3 386 382.5 512 382.5s247-46.2 340.9-130.1c93.1-83.2 152.4-197 167-320.4 1.1-9.3 2-18.7 2.5-28 0.5-8.3-2.3-16.1-7.9-22.1-5.6-6.1-13.3-9.4-21.5-9.4zM512 382c64 0 126.3-11.7 185.4-34.7 57.1-22.2 109.2-54.3 155.1-95.3 93-83.2 152.2-196.8 166.9-320.1 1.1-9.2 2-18.7 2.5-28 0.5-8.1-2.3-15.8-7.8-21.8-5.5-5.9-13-9.1-21.1-9.1-15.3 0-28 11.9-28.9 27.2-0.7 10.6-1.7 21.4-3.2 32C930.8 155.5 737.8 324 512 324S93.2 155.5 63.1-67.9c-1.4-10.6-2.5-21.3-3.2-32-1-15.2-13.7-27.2-28.9-27.2-8.1 0-15.6 3.2-21.1 9.1-5.6 5.9-8.3 13.7-7.8 21.8 0.6 9.3 1.4 18.7 2.5 28 14.6 123.3 73.9 237 166.9 320.1 45.9 41 98 73.1 155.1 95.3C385.7 370.3 448 382 512 382m0 1C249.9 383 33.8 186 3.6-68c-1.1-9.3-2-18.6-2.6-28-1.1-17.3 12.6-32 29.9-32 15.8 0 28.9 12.3 29.9 28.1 0.7 10.7 1.7 21.4 3.2 31.9 29.8 220.8 219 391 447.9 391S930 152.8 959.8-68c1.4-10.5 2.5-21.1 3.2-31.9 1-15.8 14.1-28.1 29.9-28.1 17.3 0 31 14.7 29.9 32-0.6 9.4-1.5 18.8-2.6 28-30 254-246.1 451-508.2 451z"  horiz-adv-x="1024" />

    
    <glyph glyph-name="video" unicode="&#59564;" d="M30 109.5C13.7 109.5 0.5 122.7 0.5 139V629c0 16.3 13.2 29.5 29.5 29.5h643c16.3 0 29.5-13.2 29.5-29.5v-209l276.6 162.1c4.6 2.7 9.6 4.1 14.9 4.1 16.3 0 29.5-13.3 29.5-29.5v-345.3c0-8.1-3.2-15.7-9-21.2-5.5-5.3-13-8.3-20.6-8.3-5.2 0-10.2 1.4-14.9 4.1L702.5 348v-209c0-16.3-13.2-29.5-29.5-29.5H30z m60 490c-16.8 0-30.5-13.7-30.5-30.5v-370c0-16.8 13.7-30.5 30.5-30.5h523c16.8 0 30.5 13.7 30.5 30.5V569c0 16.8-13.7 30.5-30.5 30.5H90z m843-116.6c-5.3 0-10.6-1.5-15.4-4.2l-116.7-68.4c-9.4-5.5-15.1-15.4-15.1-26.3s5.6-20.8 15.1-26.3l116.7-68.4c4.8-2.8 10-4.2 15.4-4.2 16.8 0 30.5 13.7 30.5 30.5V452.4c0 16.8-13.7 30.5-30.5 30.5zM673 658c16 0 29-13 29-29V419.2l1.5 0.9 275.8 161.6c4.6 2.7 9.5 4 14.6 4 16 0 29-13 29-29v-345.3c0-16-13-29-29-29-5.1 0-10.1 1.4-14.6 4L703.5 347.9l-1.5 0.9V139c0-16-13-29-29-29H30c-16 0-29 13-29 29V629c0 16 13 29 29 29h643M90 168h523c17.1 0 31 13.9 31 31V569c0 17.1-13.9 31-31 31H90c-17.1 0-31-13.9-31-31v-370c0-17.1 13.9-31 31-31m843 116.6c17.1 0 31 13.9 31 31V452.4c0 8.5-3.4 16.5-9.5 22.3-5.8 5.5-13.7 8.7-21.6 8.7-5.4 0-10.8-1.5-15.6-4.3l-116.7-68.4c-9.6-5.6-15.3-15.6-15.3-26.7s5.7-21.1 15.3-26.7l116.7-68.4c4.9-2.9 10.2-4.3 15.7-4.3M673 659H30c-16.6 0-30-13.4-30-30v-490c0-16.6 13.4-30 30-30h643c16.6 0 30 13.4 30 30V347.1l275.8-161.6c4.9-2.9 10.1-4.2 15.1-4.2 15.7 0 30 12.5 30 30V556.7c0 17.5-14.4 30-30 30-5.1 0-10.2-1.3-15.1-4.2L703 420.9V629c0 16.6-13.4 30-30 30zM90 169c-16.6 0-30 13.4-30 30V569c0 16.6 13.4 30 30 30h523c16.6 0 30-13.4 30-30v-370c0-16.6-13.4-30-30-30H90z m843 116.6c-5.1 0-10.2 1.3-15.1 4.2l-116.7 68.4c-19.8 11.6-19.8 40.2 0 51.8l116.7 68.4c4.9 2.9 10.1 4.2 15.1 4.2 15.7 0 30-12.5 30-30v-136.8c0-17.7-14.4-30.2-30-30.2z"  horiz-adv-x="1024" />

    
    <glyph glyph-name="theme" unicode="&#59565;" d="M776.498104 604.298212c-16.599959 0-29.999927-13.399967-29.999927-29.999927V-68.000146h-468.998854V574.298285c0 16.599959-13.399967 29.999927-29.999927 29.999927s-29.999927-13.399967-29.999927-29.999927V-98.000073c0-16.599959 13.399967-29.999927 29.999927-29.999927h528.998708c16.599959 0 29.999927 13.399967 29.999927 29.999927V574.298285c0 16.599959-13.399967 29.999927-29.999927 29.999927zM1023.9975 557.998325v96.499765c0 8.899978-3.89999 17.299958-10.699974 22.999943L963.997646 718.897932 761.298141 888.997517c-5.599986 4.699989-12.499969 6.999983-19.299953 6.999983-7.799981 0.1-15.699962-2.799993-21.599947-8.699979C661.998384 829.497662 588.998562 797.997739 511.99875 797.997739c-75.799815 0-147.799639 30.599925-205.699498 86.699789-0.2 0.2-0.299999 0.399999-0.499999 0.599998-5.999985 7.199982-14.699964 10.799974-23.399942 10.699974-6.999983 0-13.899966-2.399994-19.599953-7.299982-0.899998-0.699998-1.699996-1.499996-2.399994-2.299995L59.999854 718.197934l-49.29988-41.399899C3.89999 671.098049 0 662.69807 0 653.798091V518.99842c0-14.599964 10.499974-26.999934 24.799939-29.499928l35.199915-6.199984 62.299847-10.999974c18.399955-3.199992 35.199914 10.899973 35.199914 29.499928 0 14.599964-10.499974 26.999934-24.799939 29.499928l-47.899883 8.39998c-14.299965 2.499994-24.799939 14.999963-24.799939 29.499928v56.399862c0 8.899978 3.89999 17.299958 10.699973 22.999944L262.799358 809.99771c10.799974 8.999978 26.299936 9.399977 37.499909 0.899998 20.699949-15.699962 42.699896-29.099929 65.999839-39.999903C412.598993 748.997859 461.698873 737.997886 511.99875 737.997886c50.299877 0 99.399757 11.099973 145.799644 32.79992 23.399943 10.999973 45.599889 24.49994 66.399838 40.399901 11.199973 8.499979 26.699935 8.19998 37.499908-0.799998l191.599533-160.799607c6.799983-5.699986 10.699974-14.099966 10.699973-22.999944v-53.999868c0-14.599964-10.499974-26.999934-24.799939-29.499928l-47.899883-8.39998c-14.299965-2.499994-24.799939-14.999963-24.799939-29.499928 0-18.699954 16.799959-32.79992 35.199914-29.499928l62.299847 10.999973 35.199915 6.199985c14.299965 2.499994 24.799939 14.999963 24.799939 29.499928V557.998325z"  horiz-adv-x="1024" />

    
    <glyph glyph-name="v" unicode="&#59566;" d="M1017.3 866.5C909.4 851.3 895.7 825.5 830.4 672c-59.3-139.8-202.1-495.4-314.6-793.3h-36.5c-94.2 256.8-244.7 651.9-302.4 805.4C120.7 828.5 108.5 849.8 6.7 866.5V889.3h436.1v-22.8c-115.4-19.8-109.4-47.1-85-115.5 27.4-82.1 133.7-364.7 220.4-595.7C629.8 282.9 731.6 558 787.8 710c44.1 120 35 136.7-110.9 156.5V889.3h340.4v-22.8z"  horiz-adv-x="1024" />

    
    <glyph glyph-name="floder-fill" unicode="&#59567;" d="M964 667H381.5c-10.7 0-20.6 5.7-26 15l-58.9 102-26 45c-5.4 9.3-15.3 15-26 15H30C13.4 844 0 830.6 0 814v-860c0-16.6 13.4-30 30-30h964c16.6 0 30 13.4 30 30V637c0 16.6-13.4 30-30 30h-30z"  horiz-adv-x="1024" />

    
    <glyph glyph-name="floder-add" unicode="&#59568;" d="M964 667H381.5c-10.7 0-20.6 5.7-26 15l-58.9 102-26 45c-5.4 9.3-15.3 15-26 15H30C13.4 844 0 830.6 0 814v-860c0-16.6 13.4-30 30-30h964c16.6 0 30 13.4 30 30V637c0 16.6-13.4 30-30 30h-30z m-30-683H90c-16.6 0-30 13.4-30 30V754c0 16.6 13.4 30 30 30h120c10.7 0 20.6-5.7 26-15l58.9-102 26-45c5.4-9.3 15.3-15 26-15H934c16.6 0 30-13.4 30-30v-563c0-16.6-13.4-30-30-30zM732 314H542V504c0 16.6-13.4 30-30 30s-30-13.4-30-30v-190H292c-16.6 0-30-13.4-30-30s13.4-30 30-30h190v-190c0-16.6 13.4-30 30-30s30 13.4 30 30V254h190c16.6 0 30 13.4 30 30s-13.4 30-30 30z"  horiz-adv-x="1024" />

    
    <glyph glyph-name="heart-fill" unicode="&#59569;" d="M473.2-88.2l12-17.2c11.9-17.1 37.2-17.1 49.1 0l12 17.2 335.1 439.3c68.6 83.2 128.9 152.2 140.2 239.5 1.5 11.3 2.2 22.8 2.2 34.5 0 21.6-2.6 42.6-7.5 62.6C988.4 803.9 883.8 890.2 759 890.2c-111.3 0-206.5-68.6-245.8-165.7-0.5-1.1-2-1.1-2.5 0C471.5 821.6 376.3 890.2 265 890.2 138.5 890.2 32.8 801.6 6.4 683.1c-4.2-18.6-6.4-38-6.4-57.9 0-14.4 1.2-28.6 3.4-42.4 13.1-81.1 76.8-159.4 132-230.7l337.8-440.3z"  horiz-adv-x="1024" />

    
    <glyph glyph-name="loop" unicode="&#59570;" d="M991.4 389h-0.4c-15.4 0-28.2-11.6-29.8-26.9l-3.5-33.1c-22-93.6-98.8-166.2-194.7-181.8-12.7-2.1-25.7-3.2-39-3.2H300c-10.2 0-20.2 0.6-30 1.9C151.6 160.6 60 261.6 60 384s91.6 223.4 210 238.1c9.8 1.2 19.8 1.9 30 1.9h566.5v-56.2l157.5 90.9-157.5 90.9V684H300c-10.1 0-20.1-0.5-30-1.5-49.1-4.9-94.7-21.6-134-47.3-3-2-6-4-9-6.1C50.2 574.8 0 485.3 0 384c0-106.9 55.9-200.6 140-253.8 2-1.3 4-2.5 6-3.7 36.9-22.1 79-36.5 124-41 9.9-1 19.9-1.5 30-1.5h424c13.2 0 26.2 0.9 39 2.5 52.5 6.8 100.7 27.2 141 57.5 58.9 44.3 101 109.7 114.9 185l2.3 27.5c1.5 17.5-12.3 32.5-29.8 32.5z"  horiz-adv-x="1024" />

    
    <glyph glyph-name="mark-singer-fill" unicode="&#59571;" d="M512 896C229.2 896 0 666.8 0 384s229.2-512 512-512 512 229.2 512 512S794.8 896 512 896z m0-869.1c-199.2 0-360.9 161.5-361 360.7-0.1 130.9 69.5 245.6 173.8 309 14.1 8.6 32.1-1.6 32.1-18.1 0-7.4-3.8-14.2-10.1-18-92.6-56.2-154.2-158.2-153.5-274.6 1.1-175.7 143.1-316.7 318.7-316.7s317.7 141.3 318.6 316.9c0.8 144.1-94.1 266.2-224.9 306.4V324c4-31.3-32-77.4-88.3-109.9-64.1-37-130.2-42.4-147.7-12S389.9 287 454 324c39.7 22.9 80.2 33.7 109.4 31.4V720c0 11.7 9.5 21.2 21.2 21.2 1.9 0 3.8-0.3 5.6-0.7C752 704.6 873 560.4 873 387.9c0-199.4-161.6-361-361-361z"  horiz-adv-x="1024" />

    
    <glyph glyph-name="down" unicode="&#59572;" d="M512 217.8l-396 396c-11.7 11.7-30.7 11.7-42.4 0s-11.7-30.7 0-42.4l417.2-417.2c5.9-5.9 13.5-8.8 21.2-8.8 7.7 0 15.4 2.9 21.2 8.8l417.2 417.2c11.7 11.7 11.7 30.7 0 42.4s-30.7 11.7-42.4 0l-396-396z"  horiz-adv-x="1024" />

    
    <glyph glyph-name="floder" unicode="&#59573;" d="M964 667H381.5c-10.7 0-20.6 5.7-26 15l-58.9 102-26 45c-5.4 9.3-15.3 15-26 15H30C13.4 844 0 830.6 0 814v-860c0-16.6 13.4-30 30-30h964c16.6 0 30 13.4 30 30V637c0 16.6-13.4 30-30 30h-30z m-30-683H90c-16.6 0-30 13.4-30 30V754c0 16.6 13.4 30 30 30h120c10.7 0 20.6-5.7 26-15l58.9-102 26-45c5.4-9.3 15.3-15 26-15H934c16.6 0 30-13.4 30-30v-563c0-16.6-13.4-30-30-30z"  horiz-adv-x="1024" />

    
    <glyph glyph-name="vip" unicode="&#59574;" d="M417.9 651L301.8 117h-90.2L96 651h91l67.8-365.7c0.5-10.5 1.2-25.7 2.3-45.7-0.3 10.5 0.5 25.6 2.3 45.7l68 365.7h90.5zM561.2 117.7h-90.5V651h90.5v-533.3zM928 360.6c0-33.2-18.5-49.7-55.3-49.7H726v-193.2h-90.5V651h237.2c36.9 0 55.3-16.4 55.3-49.1v-241.3z m-91.3 18.9v203H726v-203.1h110.7v0.1zM994 784H30c-16.5 0-30-13.5-30-30v-740c0-16.5 13.5-30 30-30h964c16.5 0 30 13.5 30 30V754c0 16.5-13.5 30-30 30z m-30-710c0-16.5-13.5-30-30-30H90c-16.5 0-30 13.5-30 30V694c0 16.5 13.5 30 30 30h844c16.5 0 30-13.5 30-30v-620z"  horiz-adv-x="1024" />

    
    <glyph glyph-name="mv" unicode="&#59575;" d="M508.6 117.5h-97.9V380.8c0 13.8 2 33.2 6.1 58l-87.9-272.5h-51.8l-88.4 272.5c4.1-25.2 6.1-44.6 6.1-58v-263.3H97V651.2h96.1l107.1-295.1c1.2-3.2 2-11.2 2.6-24.2 0 5.7 0.9 13.7 2.6 24.2l107.1 295.1h96.1v-533.7zM929 651.2L798.4 116.7H697L566.9 651.2h102.3l76.1-366c0.6-10.5 1.5-25.6 2.6-45.7-0.3 10.5 0.6 25.6 2.6 45.7l76.6 366H929zM994 785H30c-16.5 0-30-13.5-30-30v-740c0-16.5 13.5-30 30-30h964c16.5 0 30 13.5 30 30V755c0 16.5-13.5 30-30 30z m-30-710c0-16.5-13.5-30-30-30H90c-16.5 0-30 13.5-30 30V695c0 16.5 13.5 30 30 30h844c16.5 0 30-13.5 30-30v-620z"  horiz-adv-x="1025" />

    
    <glyph glyph-name="list" unicode="&#59576;" d="M30 354.5C13.7 354.5 0.5 367.7 0.5 384s13.2 29.5 29.5 29.5h964c16.3 0 29.5-13.2 29.5-29.5s-13.2-29.5-29.5-29.5H30zM994 413c16 0 29-13 29-29s-13-29-29-29H30c-16 0-29 13-29 29s13 29 29 29h964m0 1H30c-16.5 0-30-13.5-30-30s13.5-30 30-30h964c16.5 0 30 13.5 30 30s-13.5 30-30 30zM30 725C13.7 725 0.5 738.2 0.5 754.5S13.7 784 30 784h964c16.3 0 29.5-13.2 29.5-29.5S1010.3 725 994 725H30zM30-16C13.7-16 0.5-2.8 0.5 13.5S13.7 43 30 43h964c16.3 0 29.5-13.2 29.5-29.5S1010.3-16 994-16H30z"  horiz-adv-x="1024" />

    
    <glyph glyph-name="mini" unicode="&#59577;" d="M994 896H30C13.4 896 0 882.6 0 866v-278.9h60V806c0 16.6 13.4 30 30 30h844c16.6 0 30-13.4 30-30v-844c0-16.6-13.4-30-30-30H714.5v-60H994c16.6 0 30 13.4 30 30V866c0 16.6-13.4 30-30 30zM787.8 619.6L745.3 662 184.5 101.2 0.3 278.8 0-128h422.3L227.7 59.5z"  horiz-adv-x="1024" />

    
    <glyph glyph-name="v-fill" unicode="&#59578;" d="M512-127.5c-69.1 0-136 13.5-199.1 40.2-60.9 25.8-115.6 62.6-162.6 109.6-47 47-83.9 101.7-109.6 162.6C14 248 0.5 314.9 0.5 384S14 520 40.7 583.1c25.8 60.9 62.6 115.6 109.6 162.6 47 47 101.7 83.9 162.6 109.6C376 882 442.9 895.5 512 895.5S648 882 711.1 855.3c60.9-25.8 115.6-62.6 162.6-109.6 47-47 83.9-101.7 109.6-162.6 26.7-63.1 40.2-130 40.2-199.1s-13.5-136-40.2-199.1c-25.8-60.9-62.6-115.6-109.6-162.6-47-47-101.7-83.9-162.6-109.6-63.1-26.7-130-40.2-199.1-40.2z m-308.3 771l0.4-0.1c29.9-4.9 47.7-10.3 62-26.2 14.2-15.8 24.9-42.4 41.3-84.6 9.2-24.4 22.3-59 37.4-99.1 44-116.4 104.4-275.9 146.8-391.5l0.1-0.3h22.9l0.1 0.3c70.6 187.1 156.7 400.8 191.6 483.2 39.7 93.2 48.1 109 113.5 118.2l0.4 0.1v14.8H611.9v-14.8l0.4-0.1c44.9-6.1 69.2-11.7 77.6-25.8 7.8-12.9 2.6-33.3-10.5-68.9-30.9-83.5-95-256.9-127.2-336.7l-9.2 24.4c-51.1 136-108.9 290.2-124.6 337.2-7.8 21.8-12 35.7-5.8 46.3 6.2 10.6 23.3 17.6 57.2 23.4l0.4 0.1v14.8H203.7v-14.7zM512 895c69 0 135.9-13.5 198.9-40.2 60.8-25.7 115.5-62.6 162.4-109.5 46.9-46.9 83.8-101.6 109.5-162.4 26.6-63 40.2-129.9 40.2-198.9s-13.5-135.9-40.2-198.9c-25.7-60.8-62.6-115.5-109.5-162.4-46.9-46.9-101.6-83.8-162.4-109.5-63-26.6-129.9-40.2-198.9-40.2s-135.9 13.5-198.9 40.2c-60.8 25.7-115.5 62.6-162.4 109.5-46.9 46.9-83.8 101.6-109.5 162.4C14.5 248.1 1 315 1 384s13.5 135.9 40.2 198.9c25.7 60.8 62.6 115.5 109.5 162.4 46.9 46.9 101.6 83.8 162.4 109.5C376.1 881.5 443 895 512 895m40.4-681.5l-8.7 23.1C492.6 372.7 434.7 526.9 419 574c-7.7 21.6-12 35.5-5.9 45.9 6.1 10.4 23.1 17.4 56.9 23.2l0.8 0.1V658.9H203.2V643.2l0.8-0.1c29.8-4.9 47.5-10.3 61.7-26.1 14.1-15.8 24.9-42.3 41.2-84.4 9.2-24.4 22.3-59 37.4-99.1 44-116.4 104.3-275.8 146.8-391.4l0.2-0.7H514.9l0.2 0.6c70.6 187 156.7 400.8 191.6 483.2 19.8 46.6 31.8 73.9 47 90.5 15.8 17.4 35.4 23 66.1 27.3l0.9 0.1v15.8H611.4v-15.8l0.9-0.1c44.7-6.1 68.9-11.7 77.3-25.6 7.7-12.7 2.5-33-10.5-68.4-30.8-83.2-94.4-255.3-126.7-335.5M512 896C229.2 896 0 666.8 0 384s229.2-512 512-512 512 229.2 512 512S794.8 896 512 896z m40.3-685.3C583.8 288.4 645.8 456 680 548.6c26.9 73.1 21.3 83.3-67.6 95.3v13.9h207.3v-13.9c-65.7-9.3-74.1-25-113.8-118.5-36.1-85.2-123.1-301.8-191.6-483.2h-22.2C434.7 198.6 343 439.3 307.9 532.8c-34.2 88-41.7 100.9-103.7 111.1v13.9h265.6v-13.9c-70.3-12.1-66.6-28.7-51.8-70.4 16.8-50 81.5-222.1 134.3-362.8z"  horiz-adv-x="1024" />

    
    <glyph glyph-name="floder-success" unicode="&#59579;" d="M964 667H381.5c-10.7 0-20.6 5.7-26 15l-58.9 102-26 45c-5.4 9.3-15.3 15-26 15H30C13.4 844 0 830.6 0 814v-860c0-16.6 13.4-30 30-30h964c16.6 0 30 13.4 30 30V637c0 16.6-13.4 30-30 30h-30z m-30-683H90c-16.6 0-30 13.4-30 30V754c0 16.6 13.4 30 30 30h120c10.7 0 20.6-5.7 26-15l58.9-102 26-45c5.4-9.3 15.3-15 26-15H934c16.6 0 30-13.4 30-30v-563c0-16.6-13.4-30-30-30zM766.7 481.1L427.2 141.6c-11.7-11.7-30.7-11.7-42.4 0L257.3 269.1c-11.7 11.7-30.7 11.7-42.4 0s-11.7-30.7 0-42.4L384.6 57c3.7-3.7 8.1-6.2 12.8-7.6 10.2-3.1 21.8-0.6 29.8 7.5L809 438.7c11.7 11.7 11.7 30.7 0 42.4-11.6 11.7-30.6 11.7-42.3 0z"  horiz-adv-x="1024" />

    
    <glyph glyph-name="play-circle" unicode="&#59580;" d="M512-127.5c-69.1 0-136 13.5-199.1 40.2-60.9 25.8-115.6 62.6-162.6 109.6-47 47-83.9 101.7-109.6 162.6C14 248 0.5 314.9 0.5 384S14 520 40.7 583.1c25.8 60.9 62.6 115.6 109.6 162.6 47 47 101.7 83.9 162.6 109.6C376 882 442.9 895.5 512 895.5S648 882 711.1 855.3c60.9-25.8 115.6-62.6 162.6-109.6 47-47 83.9-101.7 109.6-162.6 26.7-63.1 40.2-130 40.2-199.1s-13.5-136-40.2-199.1c-25.8-60.9-62.6-115.6-109.6-162.6-47-47-101.7-83.9-162.6-109.6-63.1-26.7-130-40.2-199.1-40.2z m0 964c-249.5 0-452.5-203-452.5-452.5s203-452.5 452.5-452.5 452.5 203 452.5 452.5S761.5 836.5 512 836.5zM512 895c69 0 135.9-13.5 198.9-40.2 60.8-25.7 115.5-62.6 162.4-109.5 46.9-46.9 83.8-101.6 109.5-162.4 26.6-63 40.2-129.9 40.2-198.9s-13.5-135.9-40.2-198.9c-25.7-60.8-62.6-115.5-109.5-162.4-46.9-46.9-101.6-83.8-162.4-109.5-63-26.6-129.9-40.2-198.9-40.2s-135.9 13.5-198.9 40.2c-60.8 25.7-115.5 62.6-162.4 109.5-46.9 46.9-83.8 101.6-109.5 162.4C14.5 248.1 1 315 1 384s13.5 135.9 40.2 198.9c25.7 60.8 62.6 115.5 109.5 162.4 46.9 46.9 101.6 83.8 162.4 109.5C376.1 881.5 443 895 512 895m0-964c249.8 0 453 203.2 453 453S761.8 837 512 837 59 633.8 59 384s203.2-453 453-453m0 965C229.2 896 0 666.8 0 384s229.2-512 512-512 512 229.2 512 512S794.8 896 512 896z m0-964C262.4-68 60 134.4 60 384S262.4 836 512 836s452-202.4 452-452-202.4-452-452-452zM350.2 660.4l477.7-278.2-475.6-274.6zM350.7 659.5l476.2-277.3-474.1-273.7-2.1 551m-1 1.8l2.1-554.5 477.1 275.5-479.2 279z"  horiz-adv-x="1024" />

    
    <glyph glyph-name="plus" unicode="&#59581;" d="M994 414H542V866c0 16.6-13.4 30-30 30s-30-13.4-30-30v-452H30c-16.6 0-30-13.4-30-30s13.4-30 30-30h452v-452c0-16.6 13.4-30 30-30s30 13.4 30 30V354h452c16.6 0 30 13.4 30 30s-13.4 30-30 30z"  horiz-adv-x="1024" />

    
    <glyph glyph-name="lyric" unicode="&#59582;" d="M427 263.3C326.4 150.1 314.8 133.4 306.8 108.7c-0.8-2.9-2.1-4.4-3.6-4.4-0.8 0-2.1 0.7-3.6 2.1l-34 35.5c31.1 18.8 34.7 29.8 34.7 74.8V476.2H251c-19.6 0-34.7-2.1-49.3-6.5l-14.6 26.2c19.6-2.9 43.5-4.4 60-4.4H295l24.6 31.9 42.8-38.5c2.1-2.1 2.9-3.6 2.9-5.9 0-1.5-0.8-2.9-2.1-3.6l-30.5-18.8v-261.5l87.6 77.7 6.7-9.5zM274.2 705c58.7-29.1 87.6-58.1 92.6-79.2 1.5-4.4 1.5-9.5 1.5-13.7 0-21.1-11.5-37-24-37-7.3 0-12.3 5.1-16.7 29.8-5 28.3-18.8 58.9-57.9 94.4l4.5 5.7z m449.7-175.8c2.9-2.9 4.4-5.1 4.4-7.2 0-1.5-1.5-2.1-5-2.1H479.8c-15.2 0-36.2-2.9-48.5-8L411 538.7c18-1.5 36.2-2.9 52.9-2.9H650l29.7 37.8 44.2-44.4z m109.3 124.2c2.1-2.1 3.6-3.6 3.6-5.1s-1.5-2.9-3.6-4.4l-29-15.2V148c0-50.9-2.1-56.6-57.9-83.5-1.5-0.7-2.9-1.5-4.4-1.5s-2.1 2.1-2.9 6.5c-2.9 26.8-21.7 39.3-99.2 63.2l2.1 11c53.5-12.3 84.8-17.5 102.8-17.5 21.1 0 24 7.2 24 16.7V647.5H502.4c-15.2 0-36.2-2.9-48.5-8l-20.3 26.8c18-1.5 36.2-2.9 52.9-2.9h273.8l26.1 33.4 46.8-43.4zM681.9 420.9c2.9-2.1 4.4-3.6 4.4-5.1s-1.5-2.1-4.4-4.4l-21.7-13.1v-97.9c0-11 2.9-69.1 2.9-69.7 0-8.7-2.1-11.6-15.9-17.5-7.3-2.9-11.5-4.4-14.6-4.4-4.4 0-5 3.6-5 9.5V259H490.7v-47.1c0-8.7-2.1-13.1-14.6-18.2-6.5-2.9-11.5-4.4-14.6-4.4-5 0-5.8 3.6-5.8 14.6 0 15.2 2.1 95.1 2.1 98.8v88.5c0 17.5-0.8 52.4-2.1 74.8l47-37.8h110.8l22.4 30.4 46-37.7z m-54.3-146V412.2H490.7v-137.3h136.9zM882 784H142c-16.5 0-30-13.5-30-30v-740c0-16.5 13.5-30 30-30h740c16.5 0 30 13.5 30 30V754c0 16.5-13.5 30-30 30z m0-740c0-16.5-13.5-30-30-30H172c-16.5 0-30 13.5-30 30V724c0 16.5 13.5 30 30 30h680c16.5 0 30-13.5 30-30v-680z"  horiz-adv-x="1024" />

    
    <glyph glyph-name="mark-singer" unicode="&#59583;" d="M622.90008 883.9c-2.5 0.7-5.2 1.1-7.9 1.1-16.6 0-30-13.4-30-30v-517c-41.5 3.3-98.9-12-155.2-44.5-90.9-52.5-144.4-129.9-119.5-172.9 24.9-43 118.7-35.4 209.5 17.1 79.8 46.1 130.8 111.5 125.2 155.9V816.1c185.5-57 320.1-230.2 319-434.6-1.4-249-202.9-449.5-451.9-449.5C262.90008-68 61.60008 132 60.00008 381.1c-1 165 86.4 309.8 217.7 389.5 8.9 5.4 14.3 15.1 14.3 25.6 0 23.4-25.6 37.8-45.5 25.7C98.60008 732-0.09992 569.3 0.00008 383.6 0.20008 101.1 229.50008-128 512.00008-128c282.8 0 512 229.2 512 512 0 244.7-171.6 449.3-401.1 499.9z"  horiz-adv-x="1024" />

    
    <glyph glyph-name="left" unicode="&#59584;" d="M345.8 384l396 396c11.7 11.7 11.7 30.7 0 42.4s-30.7 11.7-42.4 0L282.2 405.2c-5.9-5.9-8.8-13.5-8.8-21.2 0-7.7 2.9-15.4 8.8-21.2l417.2-417.2c11.7-11.7 30.7-11.7 42.4 0s11.7 30.7 0 42.4l-396 396z"  horiz-adv-x="1024" />

    
    <glyph glyph-name="heart" unicode="&#59585;" d="M473.2-90.2l12-17.2c11.9-17.1 37.2-17.1 49.1 0l12 17.2 335.1 439.3c68.6 83.2 128.9 152.2 140.2 239.5 1.5 11.3 2.2 22.8 2.2 34.5 0 21.6-2.6 42.6-7.5 62.6C988.4 801.9 883.8 888.2 759 888.2c-111.3 0-206.5-68.6-245.8-165.7-0.5-1.1-2-1.1-2.5 0C471.5 819.6 376.3 888.2 265 888.2 138.5 888.2 32.8 799.6 6.4 681.1c-4.2-18.6-6.4-38-6.4-57.9 0-14.4 1.2-28.6 3.4-42.4 13.1-81.1 76.8-159.4 132-230.7l337.8-440.3zM176.1 396.4C126.2 465.3 60 541.8 60 623.2c0 10.2 0.8 20.2 2.2 30 14.5 99 99.8 175 202.8 175 103 0 188.2-76 202.8-174.9v-0.2l0.7-20.3c0.8-22.3 19.2-39.9 41.5-39.8 25.5 0.1 46.2 20.8 46.2 46.3V653v0.2c14.6 99 99.8 175 202.8 175 103 0 188.3-76 202.8-175 1.4-9.8 2.2-19.8 2.2-30 0-83.9-66.8-155.8-122.5-226.7L510.9-36.3c-0.5-0.8-1.7-0.8-2.2 0L176.1 396.4z"  horiz-adv-x="1024" />

    
    <glyph glyph-name="remove" unicode="&#59586;" d="M994 354H30c-16.6 0-30 13.4-30 30s13.4 30 30 30h964c16.6 0 30-13.4 30-30s-13.4-30-30-30z"  horiz-adv-x="1024" />

    
    <glyph glyph-name="random" unicode="&#59587;" d="M1006.2 161.8L811.6 274.1c-20 11.5-45-2.9-45-26v-79.3C595.3 204.6 499.3 268.1 442.4 384c56.9 115.9 152.9 179.4 324.2 215.2v-79.3c0-23.1 25-37.5 45-26l194.6 112.4c20 11.5 20 40.4 0 52L811.6 770.5c-20 11.5-45-2.9-45-26v-84.2c-47.8-9.5-89.9-20.9-127.9-34.7-47.5-17.2-87.6-37.7-122.6-62.7-42.3-30.2-76.6-66.3-104.4-110.7-30.1 55.5-68.6 99.1-118.3 134.5-35.1 25-75.2 45.5-122.6 62.7-39.2 14.2-82.7 25.9-132.3 35.6C22 688.3 6 677.2 3.2 660.6c-2.7-16.1 7.9-31.4 23.9-34.5 184-35.7 284.4-100.9 342.7-223.9l-0.5-0.2c2.4-6.2 4.8-12.2 7.3-18.1-2.5-5.9-4.9-11.9-7.3-18.1l0.5-0.2c-58.2-123-158.7-188.2-342.7-223.9-16-3.1-26.6-18.4-23.9-34.5C6 90.8 22 79.7 38.5 83c49.6 9.7 93.1 21.4 132.3 35.6 47.5 17.2 87.6 37.7 122.6 62.7 49.7 35.4 88.1 79 118.3 134.5 27.8-44.4 62.1-80.6 104.4-110.7 35.1-25 75.2-45.5 122.6-62.7 38-13.8 80.1-25.2 127.9-34.7v-84.2c0-23.1 25-37.5 45-26l194.6 112.4c20 11.5 20 40.3 0 51.9z"  horiz-adv-x="1024" />

    
    <glyph glyph-name="plus-fill" unicode="&#59588;" d="M512 896C229.2 896 0 666.8 0 384s229.2-512 512-512 512 229.2 512 512S794.8 896 512 896z m300-512c0-16.5-13.5-30-30-30H542v-240c0-16.5-13.5-30-30-30s-30 13.5-30 30V354H242c-16.5 0-30 13.5-30 30s13.5 30 30 30h240V654c0 16.5 13.5 30 30 30s30-13.5 30-30v-240h240c16.5 0 30-13.5 30-30z"  horiz-adv-x="1024" />

    
    <glyph glyph-name="right" unicode="&#59589;" d="M678.2 384l-396-396c-11.7-11.7-11.7-30.7 0-42.4s30.7-11.7 42.4 0l417.2 417.2c5.9 5.9 8.8 13.5 8.8 21.2 0 7.7-2.9 15.4-8.8 21.2L324.6 822.4c-11.7 11.7-30.7 11.7-42.4 0s-11.7-30.7 0-42.4l396-396z"  horiz-adv-x="1024" />

    
    <glyph glyph-name="play" unicode="&#59590;" d="M76.9 886.1L946.6 384 76.9-118.1zM77.4 885.3L945.6 384 77.4-117.3V885.3m-1 1.7v-1006l871.2 503L76.4 887z"  horiz-adv-x="1024" />

    
    <glyph glyph-name="play-block" unicode="&#59591;" d="M362.7 616.4l417.1-234-415.3-230.8zM994 785H30c-16.5 0-30-13.5-30-30v-740c0-16.5 13.5-30 30-30h964c16.5 0 30 13.5 30 30V755c0 16.5-13.5 30-30 30z m-30-710c0-16.5-13.5-30-30-30H90c-16.5 0-30 13.5-30 30V695c0 16.5 13.5 30 30 30h844c16.5 0 30-13.5 30-30v-620z"  horiz-adv-x="1025" />

    
    <glyph glyph-name="sequence" unicode="&#59592;" d="M29.938625 359.217812C13.780639 359.217812 0.695644 372.302807 0.695644 388.460794s13.084995 29.242982 29.242981 29.242981h955.601162c16.157986 0 29.242982-13.084995 29.242982-29.242981s-13.084995-29.242982-29.242982-29.242982H29.938625zM30.037754 726.489835C13.879768 726.489835 0.794773 739.574831 0.794773 755.732817S13.879768 784.975799 30.037754 784.975799h955.601162c16.157986 0 29.242982-13.084995 29.242981-29.242982s-13.084995-29.242982-29.242981-29.242982h-955.601162zM783.218006-128c-16.157986 0-29.242982 13.184124-29.242982 29.242982V-10.036786H29.442982C13.284995-10.036786 0.2 3.048209 0.2 19.206196S13.284995 48.449177 29.442982 48.449177h724.432913v85.944627c0 16.157986 13.184124 29.242982 29.242982 29.242982 5.154695 0 10.012004-1.288674 14.571926-3.96515l201.925267-116.575411c9.119845-5.253824 14.671055-14.770184 14.671055-25.277832 0-10.606776-5.452081-20.024008-14.671055-25.277832L797.789932-124.03485c-4.559923-2.676476-9.51636-3.96515-14.571926-3.96515z"  horiz-adv-x="1024" />

    
    <glyph glyph-name="music" unicode="&#59593;" d="M152.1-51.8c-19.9 0-33.6 5.5-39.7 16-16.4 28.4 28.3 85.1 99.7 126.3 36 20.8 72.7 34.3 103.5 38.2l0.4 0.1V703.2h0.1v0.5c1.2 13.4 11.3 24.3 24.6 26.5l540 89.2c1.6 0.3 3.3 0.4 4.9 0.4 16.2 0 29.4-13.2 29.4-29.5v-614h-0.5l0.1-0.6c3.3-31-39.9-79.9-102.9-116.2-42.5-24.6-87.2-39.2-119.5-39.2-19.9 0-33.6 5.5-39.7 16-16.4 28.4 28.3 85.1 99.7 126.3 36 20.8 72.7 34.3 103.5 38.2l0.4 0.1V698.8l-481-63.9v-530.6h-0.5l0.1-0.6c3.3-31-39.9-79.9-102.9-116.2-42.7-24.6-87.4-39.3-119.7-39.3zM885.6 819.3c16 0 28.9-13 28.9-29v-613.5h-0.6l0.1-1.1c1.6-14.6-7.7-34.2-26.1-55.2-18.8-21.4-45.9-42.9-76.6-60.5-42.5-24.5-87.1-39.2-119.3-39.2-19.7 0-33.3 5.4-39.2 15.7-7.8 13.5-1.8 34 16.8 57.6 18.8 23.9 48.2 48 82.8 68 35.9 20.7 72.6 34.3 103.3 38.1l0.9 0.1v499l-1.1-0.2-480-63.8-0.9-0.1v-530.6h-0.6l0.1-1.1c1.6-14.6-7.7-34.2-26.1-55.2-18.8-21.4-45.9-42.9-76.6-60.5-42.5-24.5-87.1-39.2-119.3-39.2-19.7 0-33.3 5.4-39.2 15.7-7.8 13.5-1.8 34 16.8 57.6 18.8 23.9 48.2 48 82.8 68 35.9 20.7 72.6 34.3 103.3 38.1l0.9 0.1V702.8l0.1 0.9c1.2 13.2 11.1 23.9 24.2 26l540 89.2c1.4 0.2 3 0.4 4.6 0.4m0 1c-1.6 0-3.3-0.1-4.9-0.4l-540-89.2c-13.6-2.2-23.8-13.4-25-26.9h-0.1v-574.6c-29.4-3.7-66.5-16.8-103.6-38.2-71.7-41.4-116.5-98.3-99.9-127 6.3-11 20.7-16.2 40.1-16.2 31.3 0 75.5 13.7 119.8 39.3 64 36.9 106.5 86.1 103.2 116.7h0.5V634.4l480 63.8v-497c-29.4-3.7-66.5-16.8-103.6-38.2-71.7-41.4-116.5-98.3-99.9-127 6.3-11 20.7-16.2 40.1-16.2 31.3 0 75.5 13.7 119.8 39.3 64 36.9 106.5 86.1 103.2 116.7h0.5V790.3c-0.3 16.8-14 30-30.2 30z"  horiz-adv-x="1024" />

    
    <glyph glyph-name="song-list" unicode="&#59594;" d="M906.466732 895.571206l-164.986085-27.797655v-814.331323c-29.397521-3.699688-66.394401-16.798583-103.491272-38.196779-71.693954-41.396509-116.490176-98.29171-99.891576-126.98929s88.192562-18.398448 159.886516 22.99806c54.89537 31.697327 93.992073 72.493886 101.891407 102.69134h1.599865V807.77861h109.990724c16.5986 0 29.99747 13.39887 29.99747 29.99747V865.973702c0 18.598431-16.698592 32.697242-34.997049 29.597504zM112.533689 668.990315h439.962896c16.5986 0 29.99747 13.39887 29.99747 29.99747s-13.39887 29.99747-29.99747 29.99747h-439.962896c-16.5986 0-29.99747-13.39887-29.99747-29.99747s13.39887-29.99747 29.99747-29.99747zM582.494055 155.03366c0 16.5986-13.39887 29.99747-29.99747 29.99747h-439.962896c-16.5986 0-29.99747-13.39887-29.99747-29.99747s13.39887-29.99747 29.99747-29.99747h439.962896c16.5986 0 29.99747 13.39887 29.99747 29.99747zM112.533689 397.013253h439.962896c16.5986 0 29.99747 13.39887 29.99747 29.99747s-13.39887 29.99747-29.99747 29.99747h-439.962896c-16.5986 0-29.99747-13.39887-29.99747-29.99747s13.39887-29.99747 29.99747-29.99747z"  horiz-adv-x="1024" />

    
    <glyph glyph-name="scale" unicode="&#59595;" d="M30-30.5C13.7-30.5 0.5-17.3 0.5-1V639c0 16.3 13.2 29.5 29.5 29.5h840c16.3 0 29.5-13.2 29.5-29.5v-640c0-16.3-13.2-29.5-29.5-29.5H30z m60 640c-16.8 0-30.5-13.7-30.5-30.5v-520c0-16.8 13.7-30.5 30.5-30.5h720c16.8 0 30.5 13.7 30.5 30.5V579c0 16.8-13.7 30.5-30.5 30.5H90zM870 668c16 0 29-13 29-29v-640c0-16-13-29-29-29H30c-16 0-29 13-29 29V639c0 16 13 29 29 29h840M90 28h720c17.1 0 31 13.9 31 31V579c0 17.1-13.9 31-31 31H90c-17.1 0-31-13.9-31-31v-520c0-17.1 13.9-31 31-31m780 641H30c-16.6 0-30-13.4-30-30v-640c0-16.6 13.4-30 30-30h840c16.6 0 30 13.4 30 30V639c0 16.6-13.4 30-30 30zM90 29c-16.6 0-30 13.4-30 30V579c0 16.6 13.4 30 30 30h720c16.6 0 30-13.4 30-30v-520c0-16.6-13.4-30-30-30H90zM990 99.5c-16.3 0-29.5 13.2-29.5 29.5v26c0 1.9 1.6 3.5 3.5 3.5h0.5V709c0 16.8-13.7 30.5-30.5 30.5H183.5v-0.5c0-5.2-4.3-9.5-9.5-9.5h-20c-16.3 0-29.5 13.2-29.5 29.5v10c0 16.3 13.2 29.5 29.5 29.5h840c16.3 0 29.5-13.2 29.5-29.5v-640c0-16.3-13.2-29.5-29.5-29.5h-4zM994 798c16 0 29-13 29-29v-640c0-16-13-29-29-29h-4c-16 0-29 13-29 29v26c0 1.7 1.3 3 3 3h1V709c0 17.1-13.9 31-31 31H183v-1c0-5-4-9-9-9h-20c-16 0-29 13-29 29v10c0 16 13 29 29 29h840m0 1H154c-16.6 0-30-13.4-30-30v-10c0-16.6 13.4-30 30-30h20c5.5 0 10 4.5 10 10h750c16.6 0 30-13.4 30-30v-550c-2.2 0-4-1.8-4-4v-26c0-16.6 13.4-30 30-30h4c16.6 0 30 13.4 30 30V769c0 16.6-13.4 30-30 30z"  horiz-adv-x="1024" />

    
    <glyph glyph-name="play-next" unicode="&#59596;" d="M51-102.3c-16.3 0-29.5 13.3-29.5 29.5V840.7C21.5 857 34.8 870.3 51 870.3c5.2 0 10.1-1.3 14.7-4l791.1-456.7c9.2-5.3 14.8-14.9 14.8-25.5 0-10.7-5.5-20.2-14.8-25.5l-791-456.9c-4.6-2.6-9.6-4-14.8-4zM51 870.8v-1c5.1 0 9.9-1.3 14.5-3.9l791.1-456.7c9.1-5.2 14.5-14.6 14.5-25.1 0-10.5-5.4-19.9-14.5-25.1L65.5-97.9c-4.5-2.6-9.4-3.9-14.5-3.9-16 0-29 13-29 29V840.7c0 16 13 29 29 29v1.1m0 0c-15.7 0-30-12.5-30-30v-913.5c0-17.5 14.4-30 30-30 5 0 10.1 1.3 15 4.1L857.1 358c20 11.5 20 40.4 0 52L66 866.7c-4.8 2.8-10 4.1-15 4.1zM943-127.5c-32.8 0-59.5 26.7-59.5 59.5V836C883.5 868.8 910.2 895.5 943 895.5s59.5-26.7 59.5-59.5v-904c0-32.8-26.7-59.5-59.5-59.5zM943 895c32.5 0 59-26.5 59-59v-904c0-32.5-26.5-59-59-59s-59 26.5-59 59V836c0 32.5 26.5 59 59 59m0 1c-33.1 0-60-26.9-60-60v-904c0-33.1 26.9-60 60-60s60 26.9 60 60V836c0 33.1-26.9 60-60 60z"  horiz-adv-x="1024" />

    
    <glyph glyph-name="radio" unicode="&#59597;" d="M793.5-65.5c-10.9 11.7-10.8 30 0.4 41.4 109.9 112 170 255.8 170 408.1s-60.2 296.2-170 408.1c-11.2 11.4-11.3 29.7-0.4 41.4 11.7 12.5 31.4 12.8 43.4 0.6 57.4-58.6 102.7-125.3 134.6-198.7 34.8-80 52.5-164.6 52.5-251.4s-17.7-171.3-52.5-251.4c-31.9-73.4-77.2-140.1-134.6-198.7-12-12.2-31.7-11.9-43.4 0.6zM230.5 833.5c10.9-11.7 10.8-30-0.4-41.4C120.2 680.2 60 536.3 60 384s60.2-296.2 170-408.1c11.2-11.4 11.3-29.7 0.4-41.4-11.7-12.5-31.4-12.8-43.4-0.6-57.4 58.6-102.6 125.3-134.5 198.7C17.7 212.7 0 297.2 0 384s17.7 171.3 52.5 251.4c31.9 73.4 77.2 140.1 134.6 198.7 12 12.2 31.7 11.9 43.4-0.6zM692.8 104.8c-10.7 11.5-10.7 29.3-0.1 40.8 62 66.4 95.8 150.1 95.8 238.4 0 88.3-33.8 172-95.8 238.4-10.7 11.5-10.6 29.3 0 40.8 11.8 12.7 32 12.8 43.8 0.1 32.9-35.3 59.2-75 78.1-118.4 22.4-51.3 33.8-105.4 33.8-161s-11.4-109.7-33.8-161c-19-43.4-45.2-83.1-78.1-118.4-11.7-12.5-31.9-12.4-43.7 0.3zM331.2 663.2c10.7-11.5 10.7-29.3 0.1-40.8-62-66.4-95.8-150.1-95.8-238.4 0-88.3 33.8-172 95.8-238.4 10.7-11.5 10.6-29.3 0-40.8-11.8-12.7-32-12.8-43.8-0.1-32.9 35.3-59.2 75-78.1 118.4-22.4 51.3-33.8 105.4-33.8 161s11.4 109.7 33.8 161c19 43.4 45.2 83.1 78.1 118.4 11.7 12.5 31.9 12.4 43.7-0.3zM512 384m-150 0a150 150 0 1 1 300 0 150 150 0 1 1-300 0Z"  horiz-adv-x="1024" />

    
    <glyph glyph-name="star" unicode="&#59598;" d="M516.1 873.6l120-377.3h389.3L711.6 270l120-375.6-320.6 233.2L193.7-105.6 317.2 270 0 496.3h391L516.1 873.6z m-72-447.6H224.6l178.3-128.6-70.3-216.1 178.3 137.2 180.1-137.2-68.6 216.1L799.1 426H581.3L512.7 636.9 444.1 426z"  horiz-adv-x="1025" />

    
    <glyph glyph-name="play-pre" unicode="&#59599;" d="M994-102.3c-5.2 0-10.1 1.3-14.7 4L188.2 358.5c-9.2 5.3-14.8 14.9-14.8 25.5 0 10.7 5.5 20.2 14.8 25.5L979.3 866.3c4.6 2.7 9.5 4 14.7 4 16.3 0 29.5-13.3 29.5-29.5v-913.5c0-8.1-3.2-15.7-9-21.2-5.5-5.4-13-8.4-20.5-8.4zM994 869.8c16 0 29-13 29-29v-913.5c0-16-13-29-29-29-5.1 0-9.9 1.3-14.5 3.9L188.4 358.9c-9.1 5.2-14.5 14.6-14.5 25.1 0 10.5 5.4 19.9 14.5 25.1L979.5 865.9c4.5 2.6 9.4 3.9 14.5 3.9m0 1c-5 0-10.1-1.3-15-4.1L187.9 410c-20-11.5-20-40.4 0-52L979-98.7c4.8-2.8 10-4.1 15-4.1 15.7 0 30 12.5 30 30V840.7c0 17.5-14.4 30.1-30 30.1zM102-127.5c-32.8 0-59.5 26.7-59.5 59.5V836C42.5 868.8 69.2 895.5 102 895.5s59.5-26.7 59.5-59.5v-904c0-32.8-26.7-59.5-59.5-59.5zM102 895c32.5 0 59-26.5 59-59v-904c0-32.5-26.5-59-59-59s-59 26.5-59 59V836c0 32.5 26.5 59 59 59m0 1C68.9 896 42 869.1 42 836v-904c0-33.1 26.9-60 60-60s60 26.9 60 60V836c0 33.1-26.9 60-60 60z"  horiz-adv-x="1024" />

    
    <glyph glyph-name="remove-fill" unicode="&#59600;" d="M512 896C229.2 896 0 666.8 0 384s229.2-512 512-512 512 229.2 512 512S794.8 896 512 896z m300-512c0-16.5-13.5-30-30-30H242c-16.5 0-30 13.5-30 30s13.5 30 30 30h540c16.5 0 30-13.5 30-30z"  horiz-adv-x="1024" />

    
    <glyph glyph-name="single-loop" unicode="&#59601;" d="M991.4 356.2h-0.4c-15.4 0-28.2-11.6-29.8-26.9l-3.5-33.1c-22-93.6-98.8-166.2-194.7-181.8-12.7-2.1-25.7-3.2-39-3.2H300c-10.2 0-20.2 0.6-30 1.9C151.6 127.8 60 228.8 60 351.2s91.6 223.4 210 238.1c9.8 1.2 19.8 1.9 30 1.9h566.5V535l157.5 90.9-157.5 90.9v-65.7H300c-10.1 0-20.1-0.5-30-1.5-49.1-4.9-94.7-21.6-134-47.3-3-2-6-4-9-6.1C50.2 541.9 0 452.4 0 351.2c0-106.9 55.9-200.6 140-253.8 2-1.3 4-2.5 6-3.7 36.9-22.1 79-36.5 124-41 9.9-1 19.9-1.5 30-1.5h424c13.2 0 26.2 0.9 39 2.5 52.5 6.8 100.7 27.2 141 57.5 58.9 44.3 101 109.7 114.9 185l2.3 27.5c1.5 17.5-12.3 32.5-29.8 32.5zM415.8 236.1c72.2 4.6 76.8 10.2 76.8 44.4V475.8c0 21.9-3.1 25.5-39.6 28.1l-33.4 2.6v7.7c48.1 5.6 86.9 14.8 111 25v-258.6c0-34.2 5.4-39.8 77.6-44.4v-7.1H415.8v7z"  horiz-adv-x="1024" />

    
    <glyph glyph-name="search" unicode="&#59602;" d="M987.8-121.3c-7.9 0-15.3 3.1-20.9 8.6L752.5 101.8l-0.4-0.3c-81.9-71.7-187-111.2-295.9-111.2h-5c-60.3 0.7-118.7 13.1-173.6 36.9-53 23-100.6 55.7-141.4 97.1-40.8 41.4-72.8 89.4-95 142.8C18.1 322.4 6.5 381 6.7 441.3c0.2 60.4 12.2 119 35.6 174.1 22.6 53.3 54.9 101.1 96.1 142.2 41.1 41.1 89 73.4 142.2 96.1C335.7 877.1 394.3 889.1 454.7 889.3h1.5c60.2 0 118.6-11.7 173.6-34.8 53.2-22.3 101.1-54.3 142.3-95.1 41.2-40.8 73.8-88.3 96.7-141.3 23.7-54.8 36.1-113.1 36.8-173.3 1.2-110.8-38.3-217.7-111.1-301l-0.3-0.4L1008.6-71c5.6-5.6 8.6-13 8.6-20.9 0-7.9-3.1-15.3-8.6-20.9s-12.9-8.5-20.8-8.5zM456.2 830.3c-104.3 0-202.4-40.6-276.1-114.4-73.8-73.8-114.4-171.8-114.4-276.1 0-215.3 175.2-390.5 390.5-390.5 93.2 0 183.4 33.4 254.1 94 15.2 13 29.5 27.3 42.5 42.5 60.6 70.7 94 160.9 94 254.1-0.1 215.2-175.3 390.4-390.6 390.4zM456.2 888.8c60.1 0 118.4-11.7 173.5-34.8 53.2-22.3 101-54.3 142.2-95 41.2-40.7 73.7-88.2 96.6-141.1 23.7-54.8 36.1-113 36.7-173.1 0.6-56.3-9.1-111.3-28.7-163.4-19-50.3-46.7-96.5-82.3-137.2l-0.6-0.7 0.7-0.7 214.1-214.1c5.5-5.5 8.5-12.8 8.5-20.5 0-7.7-3-15-8.5-20.5s-12.8-8.5-20.5-8.5c-7.7 0-15 3-20.5 8.5L753.2 101.8l-0.7 0.7-0.7-0.6c-40.1-35.1-85.5-62.5-135-81.5-51.2-19.6-105.3-29.6-160.6-29.6h-5c-60.2 0.7-118.6 13.1-173.4 36.9-53 23-100.5 55.6-141.3 97C95.8 166 63.8 214 41.6 267.3 18.6 322.5 7 381 7.2 441.3c0.2 60.3 12.2 118.9 35.6 173.9 22.6 53.2 54.9 101 96 142.1s88.9 73.3 142.1 96c55 23.3 113.5 35.3 173.8 35.5h1.5m0-840c93.3 0 183.7 33.4 254.4 94.1 15.2 13 29.5 27.3 42.5 42.5 60.7 70.7 94.1 161.1 94.1 254.4 0 215.6-175.4 391-391 391-104.4 0-202.6-40.7-276.5-114.5S65.2 544.2 65.2 439.8c0-215.6 175.4-391 391-391m0 841h-1.5C207.4 889 7 688.6 6.2 441.3c-0.8-247 198-448.8 445-451.5h5c113.5 0 217.1 42 296.3 111.3L966.6-113c5.9-5.9 13.5-8.8 21.2-8.8s15.4 2.9 21.2 8.8c11.7 11.7 11.7 30.7 0 42.4L794.9 143.5c70.3 80.3 112.5 185.9 111.3 301.3-2.7 246.5-203.7 445-450 445z m0-840c-215.4 0-390 174.6-390 390s174.6 390 390 390 390-174.6 390-390c0-96.9-35.3-185.5-93.8-253.7-13-15.2-27.2-29.4-42.4-42.4-68.3-58.6-156.9-93.9-253.8-93.9z"  horiz-adv-x="1024" />

    
    <glyph glyph-name="sq" unicode="&#59603;" d="M437.8 166.2c0-32.5-21.5-48.8-64.4-48.8H159.7c-42.7 0-63.9 16.3-63.9 48.8V293.5H202v-108.9h129.7V289.4L118.9 440.8c-15.4 11.2-23.2 25.4-23.2 42.6V602.1c0 32.8 21.3 49.1 63.9 49.1h213.7c43 0 64.4-16.2 64.4-48.5v-119.4h-106V584H201.9v-96.6l212.7-150.8c15.4-10.9 23.2-25.4 23.2-43.3v-127.1zM928.1 116.7h-7.3L873.3 144c-8.4-17.8-27.7-26.6-57.6-26.6H585.2c-42 0-63.1 16.3-63.1 48.8v436c0 32.8 21.5 49.1 64.4 49.1h229c43 0 64.4-16.3 64.4-49.1V216l48.1-26v-73.4h0.1zM773.9 186v18.7l-62.1 35.5v72.6h6.3l55.8-31.4V582.8H628.3V186h145.6zM994 784H30c-16.5 0-30-13.5-30-30v-740c0-16.5 13.5-30 30-30h964c16.5 0 30 13.5 30 30V754c0 16.5-13.5 30-30 30z m-30-710c0-16.5-13.5-30-30-30H90c-16.5 0-30 13.5-30 30V694c0 16.5 13.5 30 30 30h844c16.5 0 30-13.5 30-30v-620z"  horiz-adv-x="1024" />

    
    <glyph glyph-name="setting" unicode="&#59604;" d="M774.8 831.3H258.2L0 384l258.3-447.3h516.5L1033 384 774.8 831.3z m-30-834.3H288.3L60 384l228.3 387h456.5l228.3-387-228.3-387zM516.5 634c-138.1 0-250-111.9-250-250s111.9-250 250-250 250 111.9 250 250-111.9 250-250 250z m0-440c-104.9 0-190 85.1-190 190s85.1 190 190 190 190-85.1 190-190-85.1-190-190-190z"  horiz-adv-x="1033" />

    
    <glyph glyph-name="zoom" unicode="&#59605;" d="M994 896H30C13.4 896 0 882.6 0 866v-964c0-16.6 13.4-30 30-30h964c16.6 0 30 13.4 30 30V866c0 16.6-13.4 30-30 30z m-30-934c0-16.6-13.4-30-30-30H90c-16.6 0-30 13.4-30 30V806c0 16.6 13.4 30 30 30h844c16.6 0 30-13.4 30-30v-844z"  horiz-adv-x="1024" />

    
    <glyph glyph-name="download" unicode="&#59606;" d="M90-100.5c-16.3 0-29.5 13.2-29.5 29.5V269c0 16.3 13.2 29.5 29.5 29.5s29.5-13.2 29.5-29.5v-310.5h785V269c0 16.3 13.2 29.5 29.5 29.5s29.5-13.2 29.5-29.5v-340c0-16.3-13.2-29.5-29.5-29.5H90zM934 298c16 0 29-13 29-29v-340c0-16-13-29-29-29H90c-16 0-29 13-29 29V269c0 16 13 29 29 29s29-13 29-29v-311h786V269c0 16 13 29 29 29m0 1c-16.6 0-30-13.4-30-30v-310H120V269c0 16.6-13.4 30-30 30s-30-13.4-30-30v-340c0-16.6 13.4-30 30-30h844c16.6 0 30 13.4 30 30V269c0 16.6-13.4 30-30 30zM511.7 124.3c-7.9 0-15.3 3.1-20.9 8.6L250.4 373.3c-11.5 11.5-11.5 30.2 0 41.7 5.6 5.6 13 8.6 20.9 8.6 7.9 0 15.3-3.1 20.9-8.6L483 224.2V839c0 16.3 13.2 29.5 29.5 29.5S542 855.3 542 839v-613.8L731.8 415c5.6 5.6 13 8.6 20.9 8.6s15.3-3.1 20.9-8.6c11.5-11.5 11.5-30.2 0-41.7L533.2 132.9c-5.6-5.6-13-8.6-20.9-8.6h-0.6zM512.5 868c16 0 29-13 29-29v-615l1.7 1.7 189 189c5.5 5.5 12.8 8.5 20.5 8.5 7.7 0 15-3 20.5-8.5s8.5-12.8 8.5-20.5c0-7.7-3-15-8.5-20.5L532.8 133.3c-5.5-5.5-12.8-8.5-20.5-8.5h-0.6c-7.7 0-15 3-20.5 8.5L250.8 373.7c-5.5 5.5-8.5 12.8-8.5 20.5 0 7.7 3 15 8.5 20.5s12.8 8.5 20.5 8.5c7.7 0 15-3 20.5-8.5l190-190 1.7-1.7V839c0 16 13 29 29 29m0 1c-16.6 0-30-13.4-30-30v-613.6l-190 190c-5.9 5.9-13.5 8.8-21.2 8.8-7.7 0-15.4-2.9-21.2-8.8-11.7-11.7-11.7-30.7 0-42.4l240.4-240.4c5.9-5.9 13.5-8.8 21.2-8.8h0.6c7.7 0 15.4 2.9 21.2 8.8L773.9 373c11.7 11.7 11.7 30.7 0 42.4-5.9 5.9-13.5 8.8-21.2 8.8s-15.4-2.9-21.2-8.8l-189-189V839c0 16.6-13.4 30-30 30z"  horiz-adv-x="1024" />

    
    <glyph glyph-name="volume" unicode="&#59607;" d="M753.6 828.3c-16.1 8.3-35.8 0.6-41.9-16.4l-0.1-0.2c-5.1-14.1 1.1-29.8 14.5-36.7C867.4 701.8 964 554.2 964 384s-96.6-317.8-237.9-391c-13.4-6.9-19.6-22.6-14.5-36.7l0.1-0.2c6.2-17 25.9-24.7 41.9-16.4C914.2 22.9 1024 190.6 1024 384S914.2 745.1 753.6 828.3zM811 384c0 105.8-54.8 198.8-137.5 252.2-16.1 10.4-37.7 3-44.3-15.1-4.8-13.2 0.2-27.9 12-35.5C707.3 542.8 751 468.5 751 384s-43.7-158.8-109.7-201.6c-11.8-7.6-16.8-22.3-12-35.5 6.6-18 28.2-25.5 44.3-15.1C756.2 185.2 811 278.2 811 384zM478 778.9l-7-8.4-133.7-159.3c-5.7-6.8-14.1-10.7-23-10.7H30c-16.6 0-30-13.4-30-30v-370c0-16.6 13.4-30 30-30h281.8c8.9 0 17.3-3.9 23-10.7L471-2.5l7-8.4c18-21.5 53-8.7 53 19.3V759.6c0 28-35 40.7-53 19.3z m-7-178.4v-509.7l-66.9 79.7-41.4 49.3c-5.7 6.8-14.1 10.7-23 10.7H90c-16.6 0-30 13.4-30 30v250c0 16.6 13.4 30 30 30h252.3c8.9 0 17.3 3.9 23 10.7l41.4 49.3 64.3 76.7v-76.7z"  horiz-adv-x="1024" />

    
    <glyph glyph-name="volume-fill" unicode="&#59608;" d="M753.6 828.3c-16.1 8.3-35.8 0.6-41.9-16.4l-0.1-0.2c-5.1-14.1 1.1-29.8 14.5-36.7C867.4 701.8 964 554.2 964 384s-96.6-317.8-237.9-391c-13.4-6.9-19.6-22.6-14.5-36.7l0.1-0.2c6.2-17 25.9-24.7 41.9-16.4C914.2 22.9 1024 190.6 1024 384S914.2 745.1 753.6 828.3zM811 384c0 105.8-54.8 198.8-137.5 252.2-16.1 10.4-37.7 3-44.3-15.1-4.8-13.2 0.2-27.9 12-35.5C707.3 542.8 751 468.5 751 384s-43.7-158.8-109.7-201.6c-11.8-7.6-16.8-22.3-12-35.5 6.6-18 28.2-25.5 44.3-15.1C756.2 185.2 811 278.2 811 384zM478 778.9l-7-8.4-133.7-159.3c-5.7-6.8-14.1-10.7-23-10.7H30c-16.6 0-30-13.4-30-30v-370c0-16.6 13.4-30 30-30h281.8c8.9 0 17.3-3.9 23-10.7L471-2.5l7-8.4c18-21.5 53-8.7 53 19.3V759.6c0 28-35 40.7-53 19.3z"  horiz-adv-x="1024" />

    
    <glyph glyph-name="quality-song" unicode="&#59609;" d="M512 896C229.2 896 0 666.8 0 384s229.2-512 512-512 512 229.2 512 512S794.8 896 512 896z m0-964C262.4-68 60 134.4 60 384S262.4 836 512 836s452-202.4 452-452-202.4-452-452-452zM793.5 456l-143-52.1-91.6 158.7c43 18.3 73.1 60.9 73.1 110.5 0 66.3-53.7 120-120 120s-120-53.7-120-120c0-49.9 30.4-92.7 73.8-110.8l-91.5-158.6L230.8 456l-65.1 23.7 12-68.2 47-266.5 3.2-18.1 10.6-60h547.3l10.6 60 3.3 18.7 46.9 265.9 12 68.2-65.1-23.7zM452 673.1c0 33.1 26.9 60 60 60s60-26.9 60-60c0-31.7-24.6-57.6-55.7-59.8-2.8 0.4-5.6 0.4-8.4 0-31.2 2.1-55.9 28.1-55.9 59.8z m301-446.8l-16.2-91.9-1.3-7.6H288.9l-1.2 7-16.2 91.9-28.6 162L343.8 351l57.3-20.8 30.5 52.8 80.9 140.2 80.9-140 30.5-52.8 57.3 20.8 100.5 36.6L753 226.3z"  horiz-adv-x="1024" />

    


  </font>
</defs>
</svg>
